G04 Layer_Color=2752767*
%FSLAX44Y44*%
%MOMM*%
G71*
G01*
G75*
%ADD34C,0.0508*%
%ADD35C,0.0677*%
D34*
X1160018Y909828D02*
Y913892D01*
X1164082D01*
Y909828D01*
X1160018D01*
X1015918D02*
Y913892D01*
X1019982D01*
Y909828D01*
X1015918D01*
X1174750Y954278D02*
X1172718Y958342D01*
X1176782D01*
X1174750Y954278D01*
Y1005078D02*
X1172718Y1009142D01*
X1176782D01*
X1174750Y1005078D01*
X975760Y982218D02*
X976776Y983234D01*
X977792D01*
X976776Y984250D01*
X977792Y985266D01*
X976776D01*
X975760Y986282D01*
X974744Y985266D01*
X973728D01*
X974744Y984250D01*
X973728Y983234D01*
X974744D01*
X975760Y982218D01*
X1025760D02*
X1026776Y983234D01*
X1027792D01*
X1026776Y984250D01*
X1027792Y985266D01*
X1026776D01*
X1025760Y986282D01*
X1024744Y985266D01*
X1023728D01*
X1024744Y984250D01*
X1023728Y983234D01*
X1024744D01*
X1025760Y982218D01*
X1060958Y1102868D02*
X1061974Y1104900D01*
X1060958Y1106932D01*
X1062990Y1105916D01*
X1065022Y1106932D01*
X1064006Y1104900D01*
X1065022Y1102868D01*
X1062990Y1103884D01*
X1060958Y1102868D01*
X1010158D02*
X1011174Y1104900D01*
X1010158Y1106932D01*
X1012190Y1105916D01*
X1014222Y1106932D01*
X1013206Y1104900D01*
X1014222Y1102868D01*
X1012190Y1103884D01*
X1010158Y1102868D01*
X1035558D02*
X1036574Y1104900D01*
X1035558Y1106932D01*
X1037590Y1105916D01*
X1039622Y1106932D01*
X1038606Y1104900D01*
X1039622Y1102868D01*
X1037590Y1103884D01*
X1035558Y1102868D01*
X1086358D02*
X1087374Y1104900D01*
X1086358Y1106932D01*
X1088390Y1105916D01*
X1090422Y1106932D01*
X1089406Y1104900D01*
X1090422Y1102868D01*
X1088390Y1103884D01*
X1086358Y1102868D01*
X1111758D02*
X1112774Y1104900D01*
X1111758Y1106932D01*
X1113790Y1105916D01*
X1115822Y1106932D01*
X1114806Y1104900D01*
X1115822Y1102868D01*
X1113790Y1103884D01*
X1111758Y1102868D01*
X1137158D02*
X1138174Y1104900D01*
X1137158Y1106932D01*
X1139190Y1105916D01*
X1141222Y1106932D01*
X1140206Y1104900D01*
X1141222Y1102868D01*
X1139190Y1103884D01*
X1137158Y1102868D01*
X1162558D02*
X1163574Y1104900D01*
X1162558Y1106932D01*
X1164590Y1105916D01*
X1166622Y1106932D01*
X1165606Y1104900D01*
X1166622Y1102868D01*
X1164590Y1103884D01*
X1162558Y1102868D01*
D35*
X1192022Y1055370D02*
G03*
X1192022Y1055370I-2032J0D01*
G01*
X1141222D02*
G03*
X1141222Y1055370I-2032J0D01*
G01*
X988822Y1056640D02*
G03*
X988822Y1056640I-2032J0D01*
G01*
X1039622D02*
G03*
X1039622Y1056640I-2032J0D01*
G01*
M02*
