G04 Layer_Color=16711935*
%FSLAX44Y44*%
%MOMM*%
G71*
G01*
G75*
%ADD13C,0.2540*%
%ADD21C,0.1270*%
%ADD22C,0.2000*%
%ADD23C,0.1524*%
D13*
X1072134Y1008292D02*
X1080598Y999828D01*
X1072134D02*
X1080598Y1008292D01*
X1072134Y1004060D02*
X1080598D01*
X1076366Y999828D02*
Y1008292D01*
D21*
X1025760Y984250D02*
G03*
X1025760Y984250I-25000J0D01*
G01*
D22*
X1041390D02*
G03*
X1041390Y984250I-1000J0D01*
G01*
D23*
X1086612Y1011174D02*
G03*
X1092708Y1011174I3048J0D01*
G01*
X1074166Y980186D02*
Y1011174D01*
X1086612D01*
X1092708D01*
X1105154D01*
Y980186D02*
Y1011174D01*
X1074166Y980186D02*
X1105154D01*
Y1007110D02*
X1115060D01*
Y1004316D02*
Y1007110D01*
X1105154Y1004316D02*
X1115060D01*
X1105154D02*
Y1007110D01*
Y1002030D02*
X1115060D01*
Y999236D02*
Y1002030D01*
X1105154Y999236D02*
X1115060D01*
X1105154D02*
Y1002030D01*
Y997204D02*
X1115060D01*
Y994410D02*
Y997204D01*
X1105154Y994156D02*
X1115060Y994410D01*
X1105154Y994156D02*
Y997204D01*
Y992124D02*
X1115060D01*
Y989330D02*
Y992124D01*
X1105154Y989330D02*
X1115060D01*
X1105154D02*
Y992124D01*
Y987044D02*
X1115060D01*
Y984250D02*
Y987044D01*
X1105154Y984250D02*
X1115060D01*
X1105154D02*
Y987044D01*
X1064260Y984250D02*
X1074166D01*
X1064260D02*
Y987044D01*
X1074166D01*
Y984250D02*
Y987044D01*
X1064260Y989330D02*
X1074166D01*
X1064260D02*
Y992124D01*
X1074166D01*
Y989330D02*
Y992124D01*
X1064260Y994156D02*
X1074166D01*
X1064260D02*
Y996950D01*
X1074166Y997204D01*
Y994156D02*
Y997204D01*
X1064260Y999236D02*
X1074166D01*
X1064260D02*
Y1002030D01*
X1074166D01*
Y999236D02*
Y1002030D01*
X1064260Y1004316D02*
X1074166D01*
X1064260D02*
Y1007110D01*
X1074166D01*
Y1004316D02*
Y1007110D01*
M02*
