G04 Layer_Color=128*
%FSLAX44Y44*%
%MOMM*%
G71*
G01*
G75*
%ADD34C,0.0508*%
D34*
X1158050Y911860D02*
X1166050D01*
X1162050Y907860D02*
Y915860D01*
X1013950Y911860D02*
X1021950D01*
X1017950Y907860D02*
Y915860D01*
X1186490Y1055370D02*
X1193490D01*
X1189990Y1051870D02*
Y1058870D01*
X1135690Y1055370D02*
X1142690D01*
X1139190Y1051870D02*
Y1058870D01*
X1170940Y956310D02*
X1178560D01*
X1174750Y952500D02*
Y960120D01*
X1170940Y1007110D02*
X1178560D01*
X1174750Y1003300D02*
Y1010920D01*
X983290Y1056640D02*
X990290D01*
X986790Y1053140D02*
Y1060140D01*
X1034090Y1056640D02*
X1041090D01*
X1037590Y1053140D02*
Y1060140D01*
X972010Y984250D02*
X979510D01*
X975760Y980500D02*
Y988000D01*
X1022010Y984250D02*
X1029510D01*
X1025760Y980500D02*
Y988000D01*
X1058490Y1104900D02*
X1067490D01*
X1062990Y1100400D02*
Y1109400D01*
X1007690Y1104900D02*
X1016690D01*
X1012190Y1100400D02*
Y1109400D01*
X1033090Y1104900D02*
X1042090D01*
X1037590Y1100400D02*
Y1109400D01*
X1083890Y1104900D02*
X1092890D01*
X1088390Y1100400D02*
Y1109400D01*
X1109290Y1104900D02*
X1118290D01*
X1113790Y1100400D02*
Y1109400D01*
X1134690Y1104900D02*
X1143690D01*
X1139190Y1100400D02*
Y1109400D01*
X1160090Y1104900D02*
X1169090D01*
X1164590Y1100400D02*
Y1109400D01*
M02*
