G04 Layer_Physical_Order=1*
G04 Layer_Color=255*
%FSLAX44Y44*%
%MOMM*%
G71*
G01*
G75*
%ADD10R,1.9304X2.1590*%
%ADD11R,1.3970X0.2794*%
%ADD12C,0.3048*%
%ADD13C,0.2540*%
%ADD14C,1.3080*%
%ADD15C,1.2000*%
%ADD16C,1.5240*%
%ADD17C,1.1000*%
%ADD18R,1.1000X1.1000*%
%ADD19C,1.5000*%
%ADD20R,1.5000X1.5000*%
G36*
X1210260Y891590D02*
X965250D01*
Y1117550D01*
X1210260D01*
Y891590D01*
D02*
G37*
%LPC*%
G36*
X1184830Y1005840D02*
X1176020D01*
Y997029D01*
X1177402Y997212D01*
X1179874Y998235D01*
X1181996Y999864D01*
X1183625Y1001986D01*
X1184649Y1004458D01*
X1184830Y1005840D01*
D02*
G37*
G36*
X1173480D02*
X1164669D01*
X1164852Y1004458D01*
X1165875Y1001986D01*
X1167504Y999864D01*
X1169626Y998235D01*
X1172098Y997212D01*
X1173480Y997029D01*
Y1005840D01*
D02*
G37*
G36*
Y1017190D02*
X1172098Y1017009D01*
X1169626Y1015985D01*
X1167504Y1014356D01*
X1165875Y1012234D01*
X1164852Y1009762D01*
X1164669Y1008380D01*
X1173480D01*
Y1017190D01*
D02*
G37*
G36*
X1019690Y1113775D02*
X1004690D01*
X1003718Y1113372D01*
X1003315Y1112400D01*
Y1097400D01*
X1003718Y1096428D01*
X1004690Y1096025D01*
X1017402D01*
X1050240Y1063187D01*
Y1004570D01*
X1050437Y1003579D01*
X1050999Y1002739D01*
X1054041Y999697D01*
X1053580Y998525D01*
X1052498Y998404D01*
X1040180Y1010723D01*
Y1049844D01*
X1041256Y1050290D01*
X1042775Y1051455D01*
X1043940Y1052974D01*
X1044673Y1054742D01*
X1044923Y1056640D01*
X1044673Y1058538D01*
X1043940Y1060306D01*
X1042775Y1061825D01*
X1041256Y1062990D01*
X1039488Y1063723D01*
X1037590Y1063973D01*
X1035692Y1063723D01*
X1033924Y1062990D01*
X1032405Y1061825D01*
X1031240Y1060306D01*
X1030507Y1058538D01*
X1030257Y1056640D01*
X1030507Y1054742D01*
X1031240Y1052974D01*
X1032405Y1051455D01*
X1033924Y1050290D01*
X1035000Y1049844D01*
Y1009650D01*
X1035197Y1008659D01*
X1035759Y1007819D01*
X1049465Y994113D01*
X1049574Y993124D01*
X1049443Y992512D01*
X1044030Y987099D01*
X1032635D01*
Y989750D01*
X1032232Y990722D01*
X1031260Y991125D01*
X1022914D01*
X989639Y1024400D01*
Y1049951D01*
X990456Y1050290D01*
X991975Y1051455D01*
X993140Y1052974D01*
X993873Y1054742D01*
X994123Y1056640D01*
X993873Y1058538D01*
X993140Y1060306D01*
X991975Y1061825D01*
X990456Y1062990D01*
X988688Y1063723D01*
X986790Y1063973D01*
X984892Y1063723D01*
X983124Y1062990D01*
X981605Y1061825D01*
X980440Y1060306D01*
X979707Y1058538D01*
X979457Y1056640D01*
X979707Y1054742D01*
X980440Y1052974D01*
X981605Y1051455D01*
X983124Y1050290D01*
X983941Y1049951D01*
Y1023220D01*
X983941Y1023220D01*
X984158Y1022130D01*
X984776Y1021206D01*
X1018885Y987096D01*
Y978750D01*
X1019288Y977778D01*
X1020260Y977375D01*
X1031260D01*
X1032232Y977778D01*
X1032635Y978750D01*
Y981401D01*
X1045210D01*
X1045210Y981401D01*
X1046300Y981618D01*
X1047224Y982236D01*
X1052816Y987828D01*
X1058950D01*
X1059456Y987069D01*
Y984275D01*
X1059859Y983303D01*
X1060831Y982901D01*
X1065226D01*
Y962799D01*
X1021338Y918910D01*
X1019989Y919469D01*
X1017950Y919737D01*
X1015911Y919469D01*
X1014011Y918682D01*
X1012380Y917430D01*
X1011128Y915799D01*
X1010341Y913899D01*
X1010073Y911860D01*
X1010341Y909821D01*
X1011128Y907921D01*
X1012380Y906290D01*
X1014011Y905038D01*
X1015911Y904251D01*
X1017950Y903983D01*
X1019989Y904251D01*
X1021889Y905038D01*
X1023520Y906290D01*
X1024772Y907921D01*
X1025559Y909821D01*
X1025827Y911860D01*
X1025559Y913899D01*
X1025000Y915248D01*
X1069647Y959895D01*
X1070209Y960735D01*
X1070406Y961726D01*
Y982901D01*
X1074801D01*
X1075773Y983303D01*
X1076176Y984275D01*
Y984622D01*
X1077446Y984747D01*
X1077615Y983894D01*
X1078177Y983054D01*
X1079017Y982492D01*
X1080008Y982295D01*
X1088390D01*
Y995680D01*
Y1009065D01*
X1080008D01*
X1079017Y1008868D01*
X1078177Y1008306D01*
X1077615Y1007466D01*
X1077446Y1006613D01*
X1076176Y1006738D01*
Y1007085D01*
X1075773Y1008057D01*
X1074801Y1008459D01*
X1070406D01*
Y1062933D01*
X1090221Y1082749D01*
X1090783Y1083589D01*
X1090980Y1084580D01*
Y1096480D01*
X1092813Y1097239D01*
X1094645Y1098645D01*
X1096051Y1100477D01*
X1096934Y1102611D01*
X1097236Y1104900D01*
X1096934Y1107189D01*
X1096051Y1109323D01*
X1094645Y1111155D01*
X1092813Y1112561D01*
X1090679Y1113444D01*
X1088390Y1113746D01*
X1086101Y1113444D01*
X1083967Y1112561D01*
X1082135Y1111155D01*
X1080729Y1109323D01*
X1079846Y1107189D01*
X1079544Y1104900D01*
X1079846Y1102611D01*
X1080729Y1100477D01*
X1082135Y1098645D01*
X1083967Y1097239D01*
X1085800Y1096480D01*
Y1085653D01*
X1065985Y1065837D01*
X1065423Y1064997D01*
X1065226Y1064006D01*
Y1008459D01*
X1060831D01*
X1059859Y1008057D01*
X1059456Y1007085D01*
Y1004291D01*
X1058889Y1003685D01*
X1057397Y1003666D01*
X1055420Y1005643D01*
Y1064260D01*
X1055223Y1065251D01*
X1054661Y1066091D01*
X1021065Y1099688D01*
Y1112400D01*
X1020662Y1113372D01*
X1019690Y1113775D01*
D02*
G37*
G36*
X977030Y992192D02*
Y985520D01*
X983702D01*
X983593Y986349D01*
X982783Y988305D01*
X981494Y989984D01*
X979815Y991273D01*
X977859Y992083D01*
X977030Y992192D01*
D02*
G37*
G36*
X974490Y982980D02*
X967818D01*
X967927Y982151D01*
X968737Y980195D01*
X970026Y978516D01*
X971705Y977227D01*
X973661Y976417D01*
X974490Y976308D01*
Y982980D01*
D02*
G37*
G36*
X1139190Y1113746D02*
X1136901Y1113444D01*
X1134767Y1112561D01*
X1132935Y1111155D01*
X1131529Y1109323D01*
X1130646Y1107189D01*
X1130344Y1104900D01*
X1130646Y1102611D01*
X1131529Y1100477D01*
X1132935Y1098645D01*
X1134767Y1097239D01*
X1136341Y1096587D01*
Y1062059D01*
X1135524Y1061720D01*
X1134005Y1060555D01*
X1132840Y1059036D01*
X1132107Y1057268D01*
X1131857Y1055370D01*
X1132107Y1053472D01*
X1132840Y1051704D01*
X1134005Y1050185D01*
X1135524Y1049020D01*
X1136341Y1048681D01*
Y1017270D01*
X1136341Y1017270D01*
X1136558Y1016180D01*
X1137176Y1015256D01*
X1194761Y957670D01*
Y948600D01*
X1165179Y919017D01*
X1164089Y919469D01*
X1162050Y919737D01*
X1160011Y919469D01*
X1158921Y919017D01*
X1114353Y963586D01*
Y982901D01*
X1118489D01*
X1119461Y983303D01*
X1119864Y984275D01*
Y987069D01*
X1120370Y987828D01*
X1131584D01*
X1165116Y954296D01*
X1166040Y953678D01*
X1166234Y953640D01*
X1166985Y951827D01*
X1168410Y949970D01*
X1170267Y948545D01*
X1172429Y947649D01*
X1174750Y947343D01*
X1177071Y947649D01*
X1179233Y948545D01*
X1181090Y949970D01*
X1182515Y951827D01*
X1183411Y953989D01*
X1183717Y956310D01*
X1183411Y958631D01*
X1182515Y960793D01*
X1181090Y962650D01*
X1179233Y964075D01*
X1177071Y964971D01*
X1174750Y965277D01*
X1172429Y964971D01*
X1170267Y964075D01*
X1168410Y962650D01*
X1167630Y961635D01*
X1165961Y961507D01*
X1134778Y992691D01*
X1133854Y993308D01*
X1132764Y993525D01*
X1132764Y993525D01*
X1120370D01*
X1119864Y994283D01*
Y997077D01*
X1119840Y997135D01*
X1120320Y997456D01*
X1120882Y998296D01*
X1121079Y999287D01*
Y999414D01*
X1111504D01*
Y1001954D01*
X1121079D01*
Y1002081D01*
X1120882Y1003072D01*
X1120320Y1003912D01*
X1119840Y1004233D01*
X1119864Y1004291D01*
Y1007085D01*
X1119461Y1008057D01*
X1118489Y1008459D01*
X1114353D01*
Y1096128D01*
X1116079Y1096356D01*
X1118213Y1097239D01*
X1120045Y1098645D01*
X1121451Y1100477D01*
X1122334Y1102611D01*
X1122636Y1104900D01*
X1122334Y1107189D01*
X1121451Y1109323D01*
X1120045Y1111155D01*
X1118213Y1112561D01*
X1116079Y1113444D01*
X1113790Y1113746D01*
X1111501Y1113444D01*
X1109367Y1112561D01*
X1107535Y1111155D01*
X1106129Y1109323D01*
X1105246Y1107189D01*
X1104944Y1104900D01*
X1105246Y1102611D01*
X1106129Y1100477D01*
X1107535Y1098645D01*
X1108655Y1097786D01*
Y1008459D01*
X1104519D01*
X1103547Y1008057D01*
X1103144Y1007085D01*
Y1006738D01*
X1101874Y1006613D01*
X1101705Y1007466D01*
X1101143Y1008306D01*
X1100303Y1008868D01*
X1099312Y1009065D01*
X1090930D01*
Y995680D01*
Y982295D01*
X1099312D01*
X1100303Y982492D01*
X1101143Y983054D01*
X1101705Y983894D01*
X1101874Y984747D01*
X1103144Y984622D01*
Y984275D01*
X1103547Y983303D01*
X1104519Y982901D01*
X1108655D01*
Y962406D01*
X1108655Y962406D01*
X1108872Y961316D01*
X1109490Y960392D01*
X1154893Y914989D01*
X1154441Y913899D01*
X1154173Y911860D01*
X1154441Y909821D01*
X1155228Y907921D01*
X1156480Y906290D01*
X1158111Y905038D01*
X1160011Y904251D01*
X1162050Y903983D01*
X1164089Y904251D01*
X1165989Y905038D01*
X1167620Y906290D01*
X1168872Y907921D01*
X1169659Y909821D01*
X1169927Y911860D01*
X1169659Y913899D01*
X1169208Y914989D01*
X1199624Y945406D01*
X1200242Y946330D01*
X1200459Y947420D01*
X1200459Y947420D01*
Y958850D01*
X1200242Y959940D01*
X1199624Y960864D01*
X1199624Y960864D01*
X1142039Y1018450D01*
Y1048681D01*
X1142856Y1049020D01*
X1144375Y1050185D01*
X1145540Y1051704D01*
X1146273Y1053472D01*
X1146523Y1055370D01*
X1146273Y1057268D01*
X1145540Y1059036D01*
X1144375Y1060555D01*
X1142856Y1061720D01*
X1142039Y1062059D01*
Y1096587D01*
X1143613Y1097239D01*
X1145445Y1098645D01*
X1146851Y1100477D01*
X1147734Y1102611D01*
X1148036Y1104900D01*
X1147734Y1107189D01*
X1146851Y1109323D01*
X1145445Y1111155D01*
X1143613Y1112561D01*
X1141479Y1113444D01*
X1139190Y1113746D01*
D02*
G37*
G36*
X974490Y992192D02*
X973661Y992083D01*
X971705Y991273D01*
X970026Y989984D01*
X968737Y988305D01*
X967927Y986349D01*
X967818Y985520D01*
X974490D01*
Y992192D01*
D02*
G37*
G36*
X983702Y982980D02*
X977030D01*
Y976308D01*
X977859Y976417D01*
X979815Y977227D01*
X981494Y978516D01*
X982783Y980195D01*
X983593Y982151D01*
X983702Y982980D01*
D02*
G37*
G36*
X1174549Y1103630D02*
X1165860D01*
Y1094941D01*
X1167211Y1095118D01*
X1169653Y1096130D01*
X1171751Y1097739D01*
X1173360Y1099837D01*
X1174372Y1102279D01*
X1174549Y1103630D01*
D02*
G37*
G36*
X1163320D02*
X1154631D01*
X1154808Y1102279D01*
X1155820Y1099837D01*
X1157429Y1097739D01*
X1159527Y1096130D01*
X1161969Y1095118D01*
X1163320Y1094941D01*
Y1103630D01*
D02*
G37*
G36*
Y1114859D02*
X1161969Y1114682D01*
X1159527Y1113670D01*
X1157429Y1112061D01*
X1155820Y1109963D01*
X1154808Y1107521D01*
X1154631Y1106170D01*
X1163320D01*
Y1114859D01*
D02*
G37*
G36*
X1062990Y1113746D02*
X1060701Y1113444D01*
X1058567Y1112561D01*
X1056735Y1111155D01*
X1055329Y1109323D01*
X1054570Y1107490D01*
X1046010D01*
X1045251Y1109323D01*
X1043845Y1111155D01*
X1042013Y1112561D01*
X1039879Y1113444D01*
X1037590Y1113746D01*
X1035301Y1113444D01*
X1033167Y1112561D01*
X1031335Y1111155D01*
X1029929Y1109323D01*
X1029046Y1107189D01*
X1028744Y1104900D01*
X1029046Y1102611D01*
X1029929Y1100477D01*
X1031335Y1098645D01*
X1033167Y1097239D01*
X1035301Y1096356D01*
X1037590Y1096054D01*
X1039879Y1096356D01*
X1042013Y1097239D01*
X1043845Y1098645D01*
X1045251Y1100477D01*
X1046010Y1102310D01*
X1054570D01*
X1055329Y1100477D01*
X1056735Y1098645D01*
X1058567Y1097239D01*
X1060701Y1096356D01*
X1062990Y1096054D01*
X1065279Y1096356D01*
X1067413Y1097239D01*
X1069245Y1098645D01*
X1070651Y1100477D01*
X1071534Y1102611D01*
X1071836Y1104900D01*
X1071534Y1107189D01*
X1070651Y1109323D01*
X1069245Y1111155D01*
X1067413Y1112561D01*
X1065279Y1113444D01*
X1062990Y1113746D01*
D02*
G37*
G36*
X1165860Y1114859D02*
Y1106170D01*
X1174549D01*
X1174372Y1107521D01*
X1173360Y1109963D01*
X1171751Y1112061D01*
X1169653Y1113670D01*
X1167211Y1114682D01*
X1165860Y1114859D01*
D02*
G37*
G36*
X1188720Y1054100D02*
X1181544D01*
X1181670Y1053141D01*
X1182530Y1051063D01*
X1183899Y1049279D01*
X1185683Y1047910D01*
X1187761Y1047050D01*
X1188720Y1046924D01*
Y1054100D01*
D02*
G37*
G36*
X1176020Y1017190D02*
Y1008380D01*
X1184830D01*
X1184649Y1009762D01*
X1183625Y1012234D01*
X1181996Y1014356D01*
X1179874Y1015985D01*
X1177402Y1017009D01*
X1176020Y1017190D01*
D02*
G37*
G36*
X1198437Y1054100D02*
X1191260D01*
Y1046924D01*
X1192219Y1047050D01*
X1194297Y1047910D01*
X1196081Y1049279D01*
X1197450Y1051063D01*
X1198310Y1053141D01*
X1198437Y1054100D01*
D02*
G37*
G36*
X1191260Y1063817D02*
Y1056640D01*
X1198437D01*
X1198310Y1057599D01*
X1197450Y1059677D01*
X1196081Y1061461D01*
X1194297Y1062830D01*
X1192219Y1063690D01*
X1191260Y1063817D01*
D02*
G37*
G36*
X1188720D02*
X1187761Y1063690D01*
X1185683Y1062830D01*
X1183899Y1061461D01*
X1182530Y1059677D01*
X1181670Y1057599D01*
X1181544Y1056640D01*
X1188720D01*
Y1063817D01*
D02*
G37*
%LPD*%
D10*
X1089660Y995680D02*
D03*
D11*
X1111504Y1005688D02*
D03*
Y1000684D02*
D03*
Y995680D02*
D03*
Y990676D02*
D03*
Y985672D02*
D03*
X1067816D02*
D03*
Y990676D02*
D03*
Y995680D02*
D03*
Y1000684D02*
D03*
Y1005688D02*
D03*
D12*
X1162050Y911860D02*
X1197610Y947420D01*
Y958850D01*
X1139190Y1017270D02*
X1197610Y958850D01*
X1139190Y1017270D02*
Y1055370D01*
Y1104900D01*
X1111504Y1102614D02*
X1113790Y1104900D01*
X1111504Y1005688D02*
Y1102614D01*
Y990676D02*
Y995680D01*
Y990676D02*
X1132764D01*
X1167130Y956310D01*
X1174750D01*
X1111504Y962406D02*
Y985672D01*
Y962406D02*
X1162050Y911860D01*
X1051636Y990676D02*
X1067816D01*
X1045210Y984250D02*
X1051636Y990676D01*
X1025760Y984250D02*
X1045210D01*
X986790Y1023220D02*
X1025760Y984250D01*
X986790Y1023220D02*
Y1056640D01*
D13*
X1037590Y1104900D02*
X1062990D01*
X1067816Y1005688D02*
Y1064006D01*
X1088390Y1084580D01*
Y1104900D01*
X1056716Y1000684D02*
X1067816D01*
X1052830Y1004570D02*
X1056716Y1000684D01*
X1052830Y1004570D02*
Y1064260D01*
X1012190Y1104900D02*
X1052830Y1064260D01*
X1051560Y995680D02*
X1067816D01*
X1037590Y1009650D02*
X1051560Y995680D01*
X1037590Y1009650D02*
Y1056640D01*
X1067816Y961726D02*
Y985672D01*
X1017950Y911860D02*
X1067816Y961726D01*
D14*
X1162050Y911860D02*
D03*
X1017950D02*
D03*
D15*
X1189990Y1055370D02*
D03*
X1139190D02*
D03*
X986790Y1056640D02*
D03*
X1037590D02*
D03*
D16*
X1174750Y956310D02*
D03*
Y1007110D02*
D03*
D17*
X975760Y984250D02*
D03*
D18*
X1025760D02*
D03*
D19*
X1062990Y1104900D02*
D03*
X1037590D02*
D03*
X1088390D02*
D03*
X1113790D02*
D03*
X1139190D02*
D03*
X1164590D02*
D03*
D20*
X1012190D02*
D03*
M02*
