G04 Layer_Color=65535*
%FSLAX44Y44*%
%MOMM*%
G71*
G01*
G75*
%ADD13C,0.2540*%
%ADD21C,0.1270*%
%ADD22C,0.2000*%
%ADD23C,0.1524*%
G36*
X1123569Y1003783D02*
X1121029D01*
Y1007593D01*
X1123569D01*
Y1003783D01*
D02*
G37*
D13*
X1141730Y944880D02*
X1207770D01*
Y1018540D01*
X1141730D02*
X1207770D01*
X1141730Y944880D02*
Y1018540D01*
X1059434Y1017690D02*
X1067898Y1009226D01*
X1059434D02*
X1067898Y1017690D01*
X1059434Y1013458D02*
X1067898D01*
X1063666Y1009226D02*
Y1017690D01*
D21*
X1131882Y896847D02*
G03*
X1141963Y911792I-2432J12513D01*
G01*
X1141932Y911775D02*
G03*
X1130974Y926858I-12270J2608D01*
G01*
X1037937Y911792D02*
G03*
X1048018Y896847I12513J-2432D01*
G01*
Y926873D02*
G03*
X1037937Y911928I2432J-12513D01*
G01*
X1023940Y993615D02*
G03*
X977580Y993615I-23180J-9365D01*
G01*
Y974885D02*
G03*
X1023940Y974885I23180J9365D01*
G01*
X1087950Y896860D02*
Y926860D01*
X1077950Y896860D02*
X1087950D01*
X1077950D02*
Y926860D01*
X1067950D02*
X1077950D01*
X1067950Y896860D02*
Y926860D01*
X1057950Y896860D02*
X1067950D01*
X1057950D02*
Y926860D01*
X1087950Y896860D02*
X1131950D01*
X1067950D02*
X1077950D01*
X1047950D02*
X1057950D01*
X1087950Y926860D02*
X1130950D01*
X1077950D02*
X1087950D01*
X1057950D02*
X1067950D01*
X1047950D02*
X1057950D01*
X999490Y914398D02*
Y909320D01*
X1002876D01*
X1004568D02*
X1006261D01*
X1005415D01*
Y914398D01*
X1004568Y913552D01*
X1073150Y974088D02*
Y969010D01*
X1076536D01*
X1078228Y974088D02*
X1081614D01*
X1079921D01*
Y969010D01*
X1086692Y973242D02*
X1085846Y974088D01*
X1084153D01*
X1083307Y973242D01*
Y969856D01*
X1084153Y969010D01*
X1085846D01*
X1086692Y969856D01*
X1088385Y973242D02*
X1089231Y974088D01*
X1090924D01*
X1091771Y973242D01*
Y972396D01*
X1090924Y971549D01*
X1090078D01*
X1090924D01*
X1091771Y970703D01*
Y969856D01*
X1090924Y969010D01*
X1089231D01*
X1088385Y969856D01*
X1096849Y974088D02*
X1093463D01*
Y971549D01*
X1095156Y972396D01*
X1096003D01*
X1096849Y971549D01*
Y969856D01*
X1096003Y969010D01*
X1094310D01*
X1093463Y969856D01*
X1101927Y974088D02*
X1098542D01*
Y971549D01*
X1100235Y972396D01*
X1101081D01*
X1101927Y971549D01*
Y969856D01*
X1101081Y969010D01*
X1099388D01*
X1098542Y969856D01*
X1103620Y973242D02*
X1104466Y974088D01*
X1106159D01*
X1107006Y973242D01*
Y972396D01*
X1106159Y971549D01*
X1107006Y970703D01*
Y969856D01*
X1106159Y969010D01*
X1104466D01*
X1103620Y969856D01*
Y970703D01*
X1104466Y971549D01*
X1103620Y972396D01*
Y973242D01*
X1104466Y971549D02*
X1106159D01*
X1161626Y1087542D02*
X1160779Y1088388D01*
X1159086D01*
X1158240Y1087542D01*
Y1084156D01*
X1159086Y1083310D01*
X1160779D01*
X1161626Y1084156D01*
Y1085849D01*
X1159933D01*
X1163318Y1083310D02*
Y1088388D01*
X1166704Y1083310D01*
Y1088388D01*
X1168397D02*
Y1083310D01*
X1170936D01*
X1171782Y1084156D01*
Y1087542D01*
X1170936Y1088388D01*
X1168397D01*
X1130300Y1087118D02*
Y1083733D01*
X1131993Y1082040D01*
X1133686Y1083733D01*
Y1087118D01*
X1137917D02*
X1136225D01*
X1135378Y1086272D01*
Y1082886D01*
X1136225Y1082040D01*
X1137917D01*
X1138764Y1082886D01*
Y1086272D01*
X1137917Y1087118D01*
X1140457D02*
Y1082886D01*
X1141303Y1082040D01*
X1142996D01*
X1143842Y1082886D01*
Y1087118D01*
X1145535D02*
X1148921D01*
X1147228D01*
Y1082040D01*
X1107440D02*
Y1087118D01*
X1109979D01*
X1110826Y1086272D01*
Y1084579D01*
X1109979Y1083733D01*
X1107440D01*
X1115904Y1086272D02*
X1115058Y1087118D01*
X1113365D01*
X1112518Y1086272D01*
Y1082886D01*
X1113365Y1082040D01*
X1115058D01*
X1115904Y1082886D01*
Y1084579D01*
X1114211D01*
X1117597Y1087118D02*
Y1082040D01*
X1120136D01*
X1120982Y1082886D01*
Y1086272D01*
X1120136Y1087118D01*
X1117597D01*
X1082040Y1082040D02*
Y1087118D01*
X1084579D01*
X1085426Y1086272D01*
Y1084579D01*
X1084579Y1083733D01*
X1082040D01*
X1087118Y1087118D02*
X1090504D01*
Y1086272D01*
X1087118Y1082886D01*
Y1082040D01*
X1090504D01*
X1092197D02*
X1093889D01*
X1093043D01*
Y1087118D01*
X1092197Y1086272D01*
X1005840Y1082040D02*
Y1087118D01*
X1008379D01*
X1009226Y1086272D01*
Y1084579D01*
X1008379Y1083733D01*
X1005840D01*
X1010918Y1087118D02*
X1014304D01*
Y1086272D01*
X1010918Y1082886D01*
Y1082040D01*
X1014304D01*
X1019382D02*
X1015997D01*
X1019382Y1085426D01*
Y1086272D01*
X1018536Y1087118D01*
X1016843D01*
X1015997Y1086272D01*
X1202266Y1030392D02*
X1201419Y1031238D01*
X1199726D01*
X1198880Y1030392D01*
Y1027006D01*
X1199726Y1026160D01*
X1201419D01*
X1202266Y1027006D01*
X1207344Y1026160D02*
X1203958D01*
X1207344Y1029546D01*
Y1030392D01*
X1206497Y1031238D01*
X1204805D01*
X1203958Y1030392D01*
X1199726Y938952D02*
X1198879Y939798D01*
X1197186D01*
X1196340Y938952D01*
Y935566D01*
X1197186Y934720D01*
X1198879D01*
X1199726Y935566D01*
X1201418Y938952D02*
X1202265Y939798D01*
X1203958D01*
X1204804Y938952D01*
Y938106D01*
X1203958Y937259D01*
X1203111D01*
X1203958D01*
X1204804Y936413D01*
Y935566D01*
X1203958Y934720D01*
X1202265D01*
X1201418Y935566D01*
X971126Y1031662D02*
X970279Y1032508D01*
X968586D01*
X967740Y1031662D01*
Y1028276D01*
X968586Y1027430D01*
X970279D01*
X971126Y1028276D01*
X972818Y1027430D02*
X974511D01*
X973665D01*
Y1032508D01*
X972818Y1031662D01*
X973666Y964352D02*
X972819Y965198D01*
X971126D01*
X970280Y964352D01*
Y960966D01*
X971126Y960120D01*
X972819D01*
X973666Y960966D01*
X977897Y960120D02*
Y965198D01*
X975358Y962659D01*
X978744D01*
D22*
X1041390Y984250D02*
G03*
X1041390Y984250I-1000J0D01*
G01*
X1120140Y1036320D02*
X1209040D01*
Y1074420D01*
X1120140D02*
X1209040D01*
X1120140Y1036320D02*
Y1074420D01*
X967740Y1075690D02*
X1056640D01*
X967740Y1037590D02*
Y1075690D01*
Y1037590D02*
X1056640D01*
Y1075690D01*
X1177290Y1092200D02*
Y1117600D01*
X999490Y1092200D02*
X1177290D01*
X999490D02*
Y1117600D01*
X1177290D01*
D23*
X1072896Y1010412D02*
Y1012444D01*
X1106424D01*
Y978916D02*
Y980948D01*
X1072896Y978916D02*
X1106424D01*
X1072896D02*
Y980948D01*
X1106424Y1010412D02*
Y1012444D01*
M02*
