G04 Layer_Physical_Order=2*
G04 Layer_Color=16711680*
%FSLAX44Y44*%
%MOMM*%
G71*
G01*
G75*
%ADD14C,1.3716*%
%ADD15C,1.9500*%
%ADD16R,1.9500X1.9500*%
%ADD17R,1.1000X1.1000*%
%ADD18C,1.1000*%
%ADD19R,1.5000X1.5000*%
%ADD20C,1.5000*%
%ADD21R,1.3700X1.3700*%
%ADD22C,1.3700*%
%ADD23C,1.2000*%
%ADD24C,1.5240*%
D14*
X880110Y580390D02*
D03*
Y605790D02*
D03*
Y631190D02*
D03*
Y656590D02*
D03*
Y681990D02*
D03*
Y707390D02*
D03*
Y732790D02*
D03*
Y758190D02*
D03*
X1007110D02*
D03*
Y732790D02*
D03*
Y707390D02*
D03*
Y681990D02*
D03*
Y656590D02*
D03*
Y631190D02*
D03*
Y605790D02*
D03*
Y580390D02*
D03*
D15*
X721360Y741680D02*
D03*
D16*
X670560D02*
D03*
D17*
X670960Y660400D02*
D03*
X1054500Y581660D02*
D03*
Y656590D02*
D03*
D18*
X720960Y660400D02*
D03*
X1104500Y581660D02*
D03*
Y656590D02*
D03*
D19*
X1159510Y580390D02*
D03*
D20*
Y605790D02*
D03*
D21*
Y758190D02*
D03*
D22*
Y732790D02*
D03*
Y707390D02*
D03*
Y681990D02*
D03*
Y656590D02*
D03*
Y631190D02*
D03*
D23*
X831850Y656590D02*
D03*
X781050D02*
D03*
X831850Y600710D02*
D03*
X781050D02*
D03*
D24*
X1078230Y758190D02*
D03*
Y707390D02*
D03*
X807720Y758190D02*
D03*
Y707390D02*
D03*
M02*
