G04 Layer_Color=8421504*
%FSLAX44Y44*%
%MOMM*%
G71*
G01*
G75*
G36*
X727960Y552200D02*
X713960Y552200D01*
X713960Y568325D01*
X714861Y569409D01*
X716465Y571727D01*
X717786Y574217D01*
X718805Y576845D01*
X719198Y578199D01*
X719198Y578199D01*
X727960Y578200D01*
X727960Y552200D01*
D02*
G37*
G36*
X681169Y565299D02*
X683487Y563695D01*
X685977Y562374D01*
X688605Y561355D01*
X689959Y560962D01*
X689960Y552200D01*
X663960Y552200D01*
X663960Y566200D01*
X680085D01*
X681169Y565299D01*
D02*
G37*
G36*
X727960Y602200D02*
X711835Y602200D01*
X710751Y603101D01*
X708433Y604705D01*
X705943Y606026D01*
X703315Y607045D01*
X701961Y607438D01*
X701961Y607438D01*
X701960Y616200D01*
X727960Y616200D01*
X727960Y602200D01*
D02*
G37*
G36*
X677960Y600075D02*
X677960Y600075D01*
X677059Y598991D01*
X675455Y596673D01*
X674135Y594183D01*
X673115Y591555D01*
X672722Y590201D01*
X672722D01*
Y590200D01*
X663960D01*
Y612200D01*
X667960Y616200D01*
X677960D01*
Y600075D01*
D02*
G37*
M02*
