G04 Layer_Color=128*
%FSLAX44Y44*%
%MOMM*%
G71*
G01*
G75*
%ADD41C,0.0508*%
D41*
X875030Y580390D02*
X885190D01*
X880110Y575310D02*
Y585470D01*
X875030Y605790D02*
X885190D01*
X880110Y600710D02*
Y610870D01*
X875030Y631190D02*
X885190D01*
X880110Y626110D02*
Y636270D01*
X875030Y656590D02*
X885190D01*
X880110Y651510D02*
Y661670D01*
X875030Y681990D02*
X885190D01*
X880110Y676910D02*
Y687070D01*
X875030Y707390D02*
X885190D01*
X880110Y702310D02*
Y712470D01*
X875030Y732790D02*
X885190D01*
X880110Y727710D02*
Y737870D01*
X875030Y758190D02*
X885190D01*
X880110Y753110D02*
Y763270D01*
X1002030Y758190D02*
X1012190D01*
X1007110Y753110D02*
Y763270D01*
X1002030Y732790D02*
X1012190D01*
X1007110Y727710D02*
Y737870D01*
X1002030Y707390D02*
X1012190D01*
X1007110Y702310D02*
Y712470D01*
X1002030Y681990D02*
X1012190D01*
X1007110Y676910D02*
Y687070D01*
X1002030Y656590D02*
X1012190D01*
X1007110Y651510D02*
Y661670D01*
X1002030Y631190D02*
X1012190D01*
X1007110Y626110D02*
Y636270D01*
X1002030Y605790D02*
X1012190D01*
X1007110Y600710D02*
Y610870D01*
X1002030Y580390D02*
X1012190D01*
X1007110Y575310D02*
Y585470D01*
X714860Y741680D02*
X727860D01*
X721360Y735180D02*
Y748180D01*
X664060Y741680D02*
X677060D01*
X670560Y735180D02*
Y748180D01*
X667210Y660400D02*
X674710D01*
X670960Y656650D02*
Y664150D01*
X717210Y660400D02*
X724710D01*
X720960Y656650D02*
Y664150D01*
X1050750Y581660D02*
X1058250D01*
X1054500Y577910D02*
Y585410D01*
X1100750Y581660D02*
X1108250D01*
X1104500Y577910D02*
Y585410D01*
X1050750Y656590D02*
X1058250D01*
X1054500Y652840D02*
Y660340D01*
X1100750Y656590D02*
X1108250D01*
X1104500Y652840D02*
Y660340D01*
X1155010Y580390D02*
X1164010D01*
X1159510Y575890D02*
Y584890D01*
X1155010Y605790D02*
X1164010D01*
X1159510Y601290D02*
Y610290D01*
X1154410Y758190D02*
X1164610D01*
X1159510Y753090D02*
Y763290D01*
X1154410Y732790D02*
X1164610D01*
X1159510Y727690D02*
Y737890D01*
X1154410Y707390D02*
X1164610D01*
X1159510Y702290D02*
Y712490D01*
X1154410Y681990D02*
X1164610D01*
X1159510Y676890D02*
Y687090D01*
X1154410Y656590D02*
X1164610D01*
X1159510Y651490D02*
Y661690D01*
X1154410Y631190D02*
X1164610D01*
X1159510Y626090D02*
Y636290D01*
X828350Y656590D02*
X835350D01*
X831850Y653090D02*
Y660090D01*
X777550Y656590D02*
X784550D01*
X781050Y653090D02*
Y660090D01*
X828350Y600710D02*
X835350D01*
X831850Y597210D02*
Y604210D01*
X777550Y600710D02*
X784550D01*
X781050Y597210D02*
Y604210D01*
X1074420Y758190D02*
X1082040D01*
X1078230Y754380D02*
Y762000D01*
X1074420Y707390D02*
X1082040D01*
X1078230Y703580D02*
Y711200D01*
X803910Y758190D02*
X811530D01*
X807720Y754380D02*
Y762000D01*
X803910Y707390D02*
X811530D01*
X807720Y703580D02*
Y711200D01*
M02*
