G04 Layer_Color=16711935*
%FSLAX44Y44*%
%MOMM*%
G71*
G01*
G75*
%ADD25C,0.2000*%
%ADD26C,0.1270*%
%ADD39C,0.1000*%
D25*
X657330Y660400D02*
G03*
X657330Y660400I-1000J0D01*
G01*
X1040870Y581660D02*
G03*
X1040870Y581660I-1000J0D01*
G01*
Y656590D02*
G03*
X1040870Y656590I-1000J0D01*
G01*
X1160510Y777390D02*
G03*
X1160510Y777390I-1000J0D01*
G01*
D26*
X720960Y660400D02*
G03*
X720960Y660400I-25000J0D01*
G01*
X1104500Y581660D02*
G03*
X1104500Y581660I-25000J0D01*
G01*
Y656590D02*
G03*
X1104500Y656590I-25000J0D01*
G01*
X645160Y700680D02*
X746760D01*
Y782680D01*
X645160D02*
X746760D01*
X645160Y700680D02*
Y782680D01*
D39*
X675960Y614200D02*
X725960D01*
X665960Y604200D02*
X675960Y614200D01*
X725960Y554200D02*
Y614200D01*
X665960Y554200D02*
X725960D01*
X665960D02*
Y604200D01*
X1146810Y618490D02*
X1172210D01*
X1146810D02*
Y770890D01*
X1172210D01*
Y618490D02*
Y770890D01*
X1146810Y618490D02*
X1172210D01*
X1146810D02*
Y770890D01*
X1172210D01*
M02*
