M48
;Layer_Color=9474304
;FILE_FORMAT=4:4
METRIC,LZ
;TYPE=PLATED
T1F00S00C0.7000
T2F00S00C0.7500
T3F00S00C0.7620
T4F00S00C0.9000
T5F00S00C1.0160
T6F00S00C1.0200
T7F00S00C1.3000
%
T01
X0083185Y0060071
Y0065659
X0078105
Y0060071
T02
X010545Y0058166
X011045
Y0065659
X010545
X0072096Y006604
X0067096
T03
X0080772Y0070739
Y0075819
X0107823
Y0070739
T04
X0115951Y0058039
Y0060579
T05
X0088011Y0058039
Y0060579
Y0063119
Y0065659
Y0068199
Y0070739
Y0073279
Y0075819
X0100711
Y0073279
Y0070739
Y0068199
Y0065659
Y0063119
Y0060579
Y0058039
T06
X0115951Y0063119
Y0065659
Y0068199
Y0070739
Y0073279
Y0075819
T07
X0067056Y0074168
X0072136
M30
