G04 Layer_Color=8388736*
%FSLAX44Y44*%
%MOMM*%
G71*
G01*
G75*
%ADD28C,1.5748*%
%ADD29C,2.1532*%
%ADD30R,2.1532X2.1532*%
%ADD31R,1.3032X1.3032*%
%ADD32C,1.3032*%
%ADD33R,1.7032X1.7032*%
%ADD34C,1.7032*%
%ADD35R,1.5732X1.5732*%
%ADD36C,1.5732*%
%ADD37C,1.4032*%
%ADD38C,1.7272*%
G36*
X728093Y579210D02*
X728171Y579194D01*
X728223Y579184D01*
X728223Y579184D01*
D01*
X728230Y579181D01*
X728350Y579141D01*
X728469Y579082D01*
D01*
X728469Y579082D01*
X728506Y579057D01*
X728580Y579008D01*
X728680Y578920D01*
X728680Y578920D01*
X728680Y578920D01*
X728768Y578820D01*
X728817Y578746D01*
X728842Y578709D01*
X728842Y578709D01*
D01*
X728901Y578590D01*
X728941Y578470D01*
X728943Y578464D01*
D01*
X728943Y578464D01*
X728954Y578411D01*
X728969Y578333D01*
X728978Y578200D01*
Y578200D01*
Y578200D01*
X728979Y552200D01*
D01*
D01*
Y552200D01*
X728970Y552067D01*
X728944Y551937D01*
X728901Y551811D01*
X728842Y551691D01*
X728768Y551580D01*
X728691Y551493D01*
X728680Y551480D01*
X728680D01*
Y551480D01*
X728668Y551469D01*
X728580Y551393D01*
X728469Y551319D01*
X728350Y551260D01*
X728224Y551217D01*
X728093Y551191D01*
X727960Y551182D01*
X713960Y551182D01*
D01*
X713960D01*
X713827Y551190D01*
X713697Y551217D01*
X713570Y551259D01*
X713451Y551318D01*
X713340Y551392D01*
X713252Y551469D01*
X713240Y551480D01*
Y551480D01*
X713240D01*
X713229Y551492D01*
X713152Y551580D01*
X713078Y551691D01*
X713019Y551810D01*
X712977Y551936D01*
X712951Y552067D01*
X712942Y552200D01*
Y552200D01*
D01*
X712942Y568325D01*
X712943Y568344D01*
X712943Y568364D01*
X712947Y568411D01*
X712951Y568458D01*
X712954Y568477D01*
X712956Y568497D01*
X712967Y568542D01*
X712977Y568588D01*
X712983Y568607D01*
X712987Y568626D01*
X713004Y568670D01*
X713019Y568714D01*
X713028Y568732D01*
X713035Y568751D01*
X713058Y568792D01*
X713078Y568834D01*
X713089Y568850D01*
X713099Y568868D01*
X713126Y568906D01*
X713152Y568945D01*
X713165Y568959D01*
X713177Y568975D01*
X714049Y570025D01*
X715593Y572257D01*
X716858Y574641D01*
X717840Y577172D01*
X718220Y578483D01*
X718239Y578535D01*
X718257Y578589D01*
X718262Y578598D01*
X718265Y578608D01*
X718291Y578658D01*
X718316Y578708D01*
X718322Y578717D01*
X718326Y578726D01*
X718359Y578773D01*
X718365Y578783D01*
X718390Y578819D01*
X718397Y578827D01*
X718403Y578835D01*
X718440Y578877D01*
X718478Y578919D01*
X718478D01*
Y578919D01*
X718478Y578919D01*
X718486Y578926D01*
X718493Y578934D01*
X718535Y578969D01*
X718578Y579007D01*
X718587Y579013D01*
X718594Y579020D01*
X718642Y579050D01*
X718651Y579056D01*
X718689Y579081D01*
X718689Y579081D01*
D01*
X718692Y579083D01*
X718698Y579086D01*
X718707Y579091D01*
X718757Y579115D01*
X718808Y579140D01*
X718818Y579143D01*
X718827Y579148D01*
X718879Y579164D01*
X718934Y579183D01*
X718945Y579185D01*
X718954Y579188D01*
X719008Y579198D01*
X719065Y579209D01*
X719075Y579210D01*
X719085Y579211D01*
X719140Y579214D01*
X719198Y579218D01*
X727960Y579218D01*
X727960D01*
X727960D01*
X728093Y579210D01*
D02*
G37*
G36*
X680104Y567217D02*
X680124Y567217D01*
X680171Y567213D01*
X680218Y567210D01*
X680237Y567206D01*
X680257Y567203D01*
X680302Y567193D01*
X680348Y567183D01*
X680367Y567177D01*
X680386Y567173D01*
X680430Y567156D01*
X680474Y567141D01*
X680492Y567132D01*
X680511Y567125D01*
X680552Y567102D01*
X680594Y567082D01*
X680610Y567071D01*
X680628Y567061D01*
X680666Y567034D01*
X680705Y567008D01*
X680719Y566995D01*
X680735Y566983D01*
X681785Y566111D01*
X684017Y564567D01*
X686402Y563302D01*
X688932Y562320D01*
X690243Y561940D01*
X690295Y561921D01*
X690349Y561903D01*
X690358Y561898D01*
X690368Y561895D01*
X690418Y561869D01*
X690469Y561844D01*
D01*
X690469Y561844D01*
X690477Y561838D01*
X690486Y561833D01*
X690533Y561801D01*
X690579Y561770D01*
X690587Y561763D01*
X690595Y561757D01*
X690637Y561720D01*
X690679Y561682D01*
X690679Y561682D01*
X690679Y561682D01*
X690686Y561674D01*
X690694Y561668D01*
X690729Y561625D01*
X690767Y561582D01*
X690773Y561573D01*
X690780Y561566D01*
X690810Y561518D01*
X690816Y561509D01*
X690841Y561471D01*
X690841Y561471D01*
D01*
X690846Y561462D01*
X690851Y561453D01*
X690875Y561402D01*
X690900Y561352D01*
X690903Y561342D01*
X690908Y561333D01*
X690925Y561280D01*
X690941Y561233D01*
X690943Y561226D01*
D01*
X690943Y561226D01*
X690945Y561216D01*
X690948Y561206D01*
X690958Y561151D01*
X690969Y561095D01*
X690970Y561085D01*
X690971Y561075D01*
X690974Y561018D01*
X690978Y560962D01*
X690978Y552200D01*
Y552200D01*
Y552200D01*
X690969Y552067D01*
X690954Y551989D01*
X690944Y551936D01*
X690944Y551936D01*
D01*
X690941Y551930D01*
X690901Y551810D01*
X690842Y551691D01*
D01*
X690842Y551691D01*
X690817Y551654D01*
X690768Y551580D01*
X690680Y551480D01*
X690680Y551480D01*
X690680Y551480D01*
X690580Y551392D01*
X690506Y551343D01*
X690469Y551318D01*
X690469Y551318D01*
D01*
X690350Y551259D01*
X690230Y551219D01*
X690224Y551217D01*
D01*
X690223Y551217D01*
X690171Y551206D01*
X690093Y551190D01*
X689960Y551182D01*
X689960D01*
X689960D01*
X663960Y551182D01*
X663827Y551191D01*
X663697Y551217D01*
X663571Y551260D01*
X663451Y551319D01*
X663340Y551393D01*
X663253Y551469D01*
X663240Y551480D01*
Y551480D01*
X663240D01*
X663230Y551493D01*
X663152Y551580D01*
X663079Y551691D01*
X663020Y551811D01*
X662977Y551937D01*
X662951Y552067D01*
X662942Y552200D01*
X662942Y566200D01*
D01*
Y566200D01*
X662951Y566333D01*
X662977Y566464D01*
X663019Y566590D01*
X663078Y566709D01*
X663152Y566820D01*
X663229Y566908D01*
X663240Y566920D01*
X663240D01*
Y566920D01*
X663252Y566931D01*
X663340Y567008D01*
X663451Y567082D01*
X663570Y567141D01*
X663697Y567183D01*
X663827Y567210D01*
X663960Y567218D01*
X663960D01*
D01*
X680085D01*
X680104Y567217D01*
D02*
G37*
G36*
X728093Y617210D02*
X728224Y617184D01*
X728350Y617141D01*
X728469Y617082D01*
X728580Y617008D01*
X728668Y616931D01*
X728680Y616920D01*
Y616920D01*
X728680D01*
X728691Y616908D01*
X728768Y616820D01*
X728842Y616709D01*
X728901Y616590D01*
X728944Y616464D01*
X728970Y616333D01*
X728978Y616200D01*
Y616200D01*
D01*
X728978Y602200D01*
X728969Y602067D01*
X728943Y601936D01*
X728901Y601810D01*
X728842Y601691D01*
X728768Y601580D01*
X728691Y601492D01*
X728680Y601480D01*
X728680D01*
Y601480D01*
X728668Y601469D01*
X728580Y601392D01*
X728469Y601318D01*
X728350Y601259D01*
X728223Y601217D01*
X728093Y601190D01*
X727960Y601182D01*
X711835Y601182D01*
X711815Y601183D01*
X711796Y601183D01*
X711749Y601187D01*
X711702Y601190D01*
X711683Y601194D01*
X711663Y601196D01*
X711618Y601207D01*
X711572Y601217D01*
X711553Y601223D01*
X711534Y601227D01*
X711490Y601244D01*
X711446Y601259D01*
X711428Y601268D01*
X711409Y601275D01*
X711368Y601298D01*
X711326Y601318D01*
X711310Y601329D01*
X711292Y601339D01*
X711254Y601366D01*
X711215Y601392D01*
X711201Y601405D01*
X711184Y601417D01*
X710135Y602289D01*
X707903Y603833D01*
X705519Y605098D01*
X702988Y606080D01*
X701677Y606460D01*
X701625Y606479D01*
X701571Y606497D01*
X701562Y606502D01*
X701552Y606505D01*
X701502Y606531D01*
X701451Y606556D01*
X701443Y606562D01*
X701434Y606566D01*
X701387Y606599D01*
X701341Y606630D01*
X701333Y606637D01*
X701324Y606643D01*
X701283Y606681D01*
X701241Y606718D01*
X701234Y606726D01*
X701226Y606732D01*
X701190Y606775D01*
X701153Y606818D01*
X701147Y606827D01*
X701140Y606834D01*
X701110Y606882D01*
X701079Y606929D01*
X701074Y606938D01*
X701069Y606947D01*
X701045Y606997D01*
X701020Y607048D01*
X701016Y607058D01*
X701012Y607067D01*
X700995Y607120D01*
X700977Y607174D01*
X700975Y607184D01*
X700972Y607194D01*
X700962Y607249D01*
X700951Y607305D01*
X700950Y607315D01*
X700949Y607325D01*
X700946Y607382D01*
X700942Y607438D01*
X700942Y607438D01*
X700942Y616200D01*
Y616200D01*
Y616200D01*
X700950Y616333D01*
X700966Y616411D01*
X700976Y616464D01*
X700976Y616464D01*
D01*
X700979Y616470D01*
X701019Y616590D01*
X701078Y616709D01*
D01*
X701078Y616709D01*
X701103Y616746D01*
X701152Y616820D01*
X701240Y616920D01*
X701240Y616920D01*
X701240Y616920D01*
X701340Y617008D01*
X701414Y617057D01*
X701451Y617082D01*
X701451Y617082D01*
D01*
X701570Y617141D01*
X701690Y617181D01*
X701696Y617183D01*
D01*
X701696Y617183D01*
X701749Y617194D01*
X701827Y617210D01*
X701960Y617218D01*
X701960D01*
X701960D01*
X727960Y617219D01*
D01*
X727960D01*
X728093Y617210D01*
D02*
G37*
G36*
X678093Y617210D02*
X678223Y617183D01*
X678350Y617141D01*
X678469Y617082D01*
X678580Y617008D01*
X678680Y616920D01*
X678768Y616820D01*
X678842Y616709D01*
X678901Y616590D01*
X678943Y616464D01*
X678969Y616333D01*
X678978Y616200D01*
Y600075D01*
X678977Y600059D01*
X678978Y600035D01*
X678975Y600007D01*
X678974Y599980D01*
X678970Y599957D01*
X678969Y599942D01*
X678966Y599927D01*
X678964Y599903D01*
X678957Y599876D01*
X678953Y599848D01*
X678946Y599826D01*
X678943Y599812D01*
X678939Y599797D01*
X678933Y599773D01*
X678923Y599747D01*
X678915Y599720D01*
X678905Y599699D01*
X678901Y599686D01*
X678894Y599672D01*
X678885Y599649D01*
X678872Y599624D01*
X678860Y599599D01*
X678848Y599579D01*
X678842Y599566D01*
X678834Y599554D01*
X678822Y599532D01*
X678805Y599509D01*
X678791Y599485D01*
X678775Y599467D01*
X678768Y599455D01*
X678758Y599445D01*
X678743Y599424D01*
X677871Y598374D01*
X676327Y596143D01*
X675062Y593758D01*
X674080Y591228D01*
X673700Y589917D01*
X673684Y589874D01*
X673663Y589810D01*
X673658Y589799D01*
X673655Y589792D01*
X673635Y589754D01*
X673604Y589691D01*
X673597Y589680D01*
X673594Y589674D01*
X673571Y589641D01*
X673530Y589580D01*
X673521Y589570D01*
X673517Y589565D01*
X673493Y589538D01*
X673442Y589480D01*
X673432Y589471D01*
X673427Y589466D01*
X673402Y589445D01*
X673342Y589392D01*
X673330Y589384D01*
X673326Y589380D01*
X673299Y589363D01*
X673231Y589318D01*
X673218Y589312D01*
X673213Y589309D01*
X673186Y589296D01*
X673112Y589259D01*
X673097Y589254D01*
X673093Y589252D01*
X673066Y589244D01*
X672986Y589216D01*
X672971Y589213D01*
X672966Y589212D01*
X672939Y589207D01*
X672855Y589190D01*
X672840Y589189D01*
X672835Y589189D01*
X672807Y589187D01*
X672722Y589182D01*
X663960D01*
X663827Y589190D01*
X663697Y589216D01*
X663570Y589259D01*
X663451Y589318D01*
X663340Y589392D01*
X663240Y589480D01*
X663152Y589580D01*
X663078Y589691D01*
X663019Y589810D01*
X662977Y589936D01*
X662951Y590067D01*
X662942Y590200D01*
Y612200D01*
X662951Y612333D01*
X662977Y612463D01*
X663019Y612590D01*
X663078Y612709D01*
X663152Y612820D01*
X663240Y612920D01*
X667240Y616920D01*
X667340Y617008D01*
X667451Y617082D01*
X667570Y617141D01*
X667697Y617183D01*
X667827Y617210D01*
X667960Y617218D01*
X677960D01*
X678093Y617210D01*
D02*
G37*
D28*
X880110Y580390D02*
D03*
Y605790D02*
D03*
Y631190D02*
D03*
Y656590D02*
D03*
Y681990D02*
D03*
Y707390D02*
D03*
Y732790D02*
D03*
Y758190D02*
D03*
X1007110D02*
D03*
Y732790D02*
D03*
Y707390D02*
D03*
Y681990D02*
D03*
Y656590D02*
D03*
Y631190D02*
D03*
Y605790D02*
D03*
Y580390D02*
D03*
D29*
X721360Y741680D02*
D03*
D30*
X670560D02*
D03*
D31*
X670960Y660400D02*
D03*
X1054500Y581660D02*
D03*
Y656590D02*
D03*
D32*
X720960Y660400D02*
D03*
X1104500Y581660D02*
D03*
Y656590D02*
D03*
D33*
X1159510Y580390D02*
D03*
D34*
Y605790D02*
D03*
D35*
Y758190D02*
D03*
D36*
Y732790D02*
D03*
Y707390D02*
D03*
Y681990D02*
D03*
Y656590D02*
D03*
Y631190D02*
D03*
D37*
X831850Y656590D02*
D03*
X781050D02*
D03*
X831850Y600710D02*
D03*
X781050D02*
D03*
D38*
X1078230Y758190D02*
D03*
Y707390D02*
D03*
X807720Y758190D02*
D03*
Y707390D02*
D03*
M02*
