G04 Layer_Color=2752767*
%FSLAX44Y44*%
%MOMM*%
G71*
G01*
G75*
%ADD41C,0.0508*%
%ADD42C,0.0677*%
D41*
X878078Y578358D02*
Y582422D01*
X882142D01*
Y578358D01*
X878078D01*
Y603758D02*
Y607822D01*
X882142D01*
Y603758D01*
X878078D01*
Y629158D02*
Y633222D01*
X882142D01*
Y629158D01*
X878078D01*
Y654558D02*
Y658622D01*
X882142D01*
Y654558D01*
X878078D01*
Y679958D02*
Y684022D01*
X882142D01*
Y679958D01*
X878078D01*
Y705358D02*
Y709422D01*
X882142D01*
Y705358D01*
X878078D01*
Y730758D02*
Y734822D01*
X882142D01*
Y730758D01*
X878078D01*
Y756158D02*
Y760222D01*
X882142D01*
Y756158D01*
X878078D01*
X1005078D02*
Y760222D01*
X1009142D01*
Y756158D01*
X1005078D01*
Y730758D02*
Y734822D01*
X1009142D01*
Y730758D01*
X1005078D01*
Y705358D02*
Y709422D01*
X1009142D01*
Y705358D01*
X1005078D01*
Y679958D02*
Y684022D01*
X1009142D01*
Y679958D01*
X1005078D01*
Y654558D02*
Y658622D01*
X1009142D01*
Y654558D01*
X1005078D01*
Y629158D02*
Y633222D01*
X1009142D01*
Y629158D01*
X1005078D01*
Y603758D02*
Y607822D01*
X1009142D01*
Y603758D01*
X1005078D01*
Y578358D02*
Y582422D01*
X1009142D01*
Y578358D01*
X1005078D01*
X670960Y658368D02*
X668928Y662432D01*
X672992D01*
X670960Y658368D01*
X720960D02*
X718928Y662432D01*
X722992D01*
X720960Y658368D01*
X1054500Y579628D02*
X1052468Y583692D01*
X1056532D01*
X1054500Y579628D01*
X1104500D02*
X1102468Y583692D01*
X1106532D01*
X1104500Y579628D01*
X1054500Y654558D02*
X1052468Y658622D01*
X1056532D01*
X1054500Y654558D01*
X1104500D02*
X1102468Y658622D01*
X1106532D01*
X1104500Y654558D01*
X1159510Y578358D02*
X1160526Y579374D01*
X1161542D01*
X1160526Y580390D01*
X1161542Y581406D01*
X1160526D01*
X1159510Y582422D01*
X1158494Y581406D01*
X1157478D01*
X1158494Y580390D01*
X1157478Y579374D01*
X1158494D01*
X1159510Y578358D01*
Y603758D02*
X1160526Y604774D01*
X1161542D01*
X1160526Y605790D01*
X1161542Y606806D01*
X1160526D01*
X1159510Y607822D01*
X1158494Y606806D01*
X1157478D01*
X1158494Y605790D01*
X1157478Y604774D01*
X1158494D01*
X1159510Y603758D01*
X1157478Y756158D02*
X1158494Y758190D01*
X1157478Y760222D01*
X1159510Y759206D01*
X1161542Y760222D01*
X1160526Y758190D01*
X1161542Y756158D01*
X1159510Y757174D01*
X1157478Y756158D01*
Y730758D02*
X1158494Y732790D01*
X1157478Y734822D01*
X1159510Y733806D01*
X1161542Y734822D01*
X1160526Y732790D01*
X1161542Y730758D01*
X1159510Y731774D01*
X1157478Y730758D01*
Y705358D02*
X1158494Y707390D01*
X1157478Y709422D01*
X1159510Y708406D01*
X1161542Y709422D01*
X1160526Y707390D01*
X1161542Y705358D01*
X1159510Y706374D01*
X1157478Y705358D01*
Y679958D02*
X1158494Y681990D01*
X1157478Y684022D01*
X1159510Y683006D01*
X1161542Y684022D01*
X1160526Y681990D01*
X1161542Y679958D01*
X1159510Y680974D01*
X1157478Y679958D01*
Y654558D02*
X1158494Y656590D01*
X1157478Y658622D01*
X1159510Y657606D01*
X1161542Y658622D01*
X1160526Y656590D01*
X1161542Y654558D01*
X1159510Y655574D01*
X1157478Y654558D01*
Y629158D02*
X1158494Y631190D01*
X1157478Y633222D01*
X1159510Y632206D01*
X1161542Y633222D01*
X1160526Y631190D01*
X1161542Y629158D01*
X1159510Y630174D01*
X1157478Y629158D01*
X830834Y655574D02*
Y654558D01*
X832866D01*
Y655574D01*
X833882D01*
Y657606D01*
X832866D01*
Y658622D01*
X830834D01*
Y657606D01*
X829818D01*
Y655574D01*
X830834D01*
X780034D02*
Y654558D01*
X782066D01*
Y655574D01*
X783082D01*
Y657606D01*
X782066D01*
Y658622D01*
X780034D01*
Y657606D01*
X779018D01*
Y655574D01*
X780034D01*
X830834Y599694D02*
Y598678D01*
X832866D01*
Y599694D01*
X833882D01*
Y601726D01*
X832866D01*
Y602742D01*
X830834D01*
Y601726D01*
X829818D01*
Y599694D01*
X830834D01*
X780034D02*
Y598678D01*
X782066D01*
Y599694D01*
X783082D01*
Y601726D01*
X782066D01*
Y602742D01*
X780034D01*
Y601726D01*
X779018D01*
Y599694D01*
X780034D01*
X1076198Y756158D02*
X1077214D01*
X1078230Y757174D01*
X1079246Y756158D01*
X1080262D01*
Y757174D01*
X1079246Y758190D01*
X1080262Y759206D01*
Y760222D01*
X1079246D01*
X1078230Y759206D01*
X1077214Y760222D01*
X1076198D01*
Y759206D01*
X1077214Y758190D01*
X1076198Y757174D01*
Y756158D01*
Y705358D02*
X1077214D01*
X1078230Y706374D01*
X1079246Y705358D01*
X1080262D01*
Y706374D01*
X1079246Y707390D01*
X1080262Y708406D01*
Y709422D01*
X1079246D01*
X1078230Y708406D01*
X1077214Y709422D01*
X1076198D01*
Y708406D01*
X1077214Y707390D01*
X1076198Y706374D01*
Y705358D01*
X805688Y756158D02*
X806704D01*
X807720Y757174D01*
X808736Y756158D01*
X809752D01*
Y757174D01*
X808736Y758190D01*
X809752Y759206D01*
Y760222D01*
X808736D01*
X807720Y759206D01*
X806704Y760222D01*
X805688D01*
Y759206D01*
X806704Y758190D01*
X805688Y757174D01*
Y756158D01*
Y705358D02*
X806704D01*
X807720Y706374D01*
X808736Y705358D01*
X809752D01*
Y706374D01*
X808736Y707390D01*
X809752Y708406D01*
Y709422D01*
X808736D01*
X807720Y708406D01*
X806704Y709422D01*
X805688D01*
Y708406D01*
X806704Y707390D01*
X805688Y706374D01*
Y705358D01*
D42*
X723392Y741680D02*
G03*
X723392Y741680I-2032J0D01*
G01*
X672592D02*
G03*
X672592Y741680I-2032J0D01*
G01*
M02*
